{"title":"Warrior.2011.BRRip.XViD.AC3-5.1.SeT-CM8","uid":6872159,"size":2250904072,"categoryP":"video","categoryS":"movies","magnet":"?xt=urn:btih:8727cece87189c48b22568467be4915a042a8d48&amp;dn=Warrior.2011.BRRip.XViD.AC3-5.1.SeT-CM8&amp;tr=udp%3A%2F%2Ftracker.openbittorrent.com%3A80&amp;tr=udp%3A%2F%2Fopen.demonii.com%3A1337&amp;tr=udp%3A%2F%2Ftracker.coppersurfer.tk%3A6969&amp;tr=udp%3A%2F%2Fexodus.desync.com%3A6969","seeders":0,"leechers":1,"uploader":"TvTeam","files":5,"time":1323308061,"description":".\n &lt;a href=&quot;\nhttp://www.torrenting.com&quot; rel=&quot;nofollow&quot; target=&quot;_NEW&quot;&gt;\nhttp://www.torrenting.com&lt;/a&gt;          :     Once &amp; For all ;)\n\n\n               www . Torrenting . Com \n\n(((((((((((((= Enjoy No RAR releases =))))))))))))))))))))\n\n\n...................................NFO:....................................\n\n\n[size=6][color=blue]Warrior.2011.BRRip.XViD.AC3-5.1.SeT-CM8[/color][/size]\n[size=4][color=blue]***************REMOVED THE 20 SECONDS THAT REPEATED ON SOURCE, NOW 2 HRS 19 Mins 54Seconds :) ****************************[/color][/size]\n\n\n[size=3][color=blue]Two brothers face the fight of a lifetime - and the wreckage of their broken family - within the brutal, \nhigh-stakes world of Mixed Martial Arts (MMA) fighting in Lionsgate's action/drama, WARRIOR. An ex-Marine \nhaunted by a tragic past, Tommy Riordan returns to his hometown of Pittsburgh and enlists his father, a \nrecovered alcoholic and his former coach, to train him for an MMA tournament awarding the biggest purse \nin the history of the sport. As Tommy blazes a violent path towards the title prize, his brother, Brendan, \na former MMA fighter unable to make ends meet as a public school teacher, returns to the amateur ring to \nprovide for his family. Even though years have passed, recriminations and past betrayals keep Brendan \nbitterly estranged from both Tommy and his father. But when Brendan's unlikely rise as an underdog sets \nhim on a collision course with Tommy, the two brothers must finally confront the forces that tore them apart, \nall the while waging the most intense, winner-takes-all battle of their lives.\n[/color][/size]\n\n[size=4][color=red]CM8 Doing It Right The First Time :D[/color][/size]\n\n[url]http://www.imdb.com/title/tt1291584/[/url]\n\n\nSource                           : Warrior.2011.720p.BluRay.x264-Felony Thank you\nFormat                           : AVI\nFormat/Info                      : Audio Video Interleave\nFormat profile                   : OpenDML\nFile size                        : 2.09 GiB\nDuration                         : 2h 20mn\nOverall bit rate                 : 2 129 Kbps\nWriting application              : Lavf51.12.1\nWriting library                  : VirtualDub build 30091/release\n\nVideo\nFormat                           : xvid\nCodec ID                         : xvid\nDuration                         : 2h 20mn\nBit rate                         : 1 797 Kbps\nWidth                            : 720 pixels\nHeight                           : 304 pixels\nDisplay aspect ratio             : 2.35:1\nFrame rate                       : 23.976 fps\nBits/(Pixel*Frame)               : 0.342\nStream size                      : 1.76 GiB (84%)\n\nAudio\nID                               : 1\nFormat                           : AC-3\nFormat/Info                      : Audio Coding 3\nFormat_Settings_ModeExtension    : CM (complete main)\nCodec ID                         : 2000\nDuration                         : 2h 20mn\nBit rate mode                    : Constant\nBit rate                         : 320 Kbps\nChannel(s)                       : 6 channels\nChannel positions                : Front: L C R, Side: L R, LFE\nSampling rate                    : 48.0 KHz\nResolution                       : 16 bits\nStream size                      : 321 MiB (15%)\nAlignment                        : Split accross interleaves\nInterleave, duration             : 42 ms (1.00 video frame)\nInterleave, preload duration     : 500 ms\n\n\n\n\n\n[size=4][color=red]LOOKING FOR ANYTHING YOU WANT TO LOOK AND SOUND BETTER\n\n&lt;a class=&quot;__cf_email__&quot; href=&quot;/cdn-cgi/l/email-protection&quot; data-cfemail=&quot;a9eae491e9c1dcdac1c4c8c0c587cac6c4&quot;&gt;[email&amp;#160;protected]&lt;/a&gt;&lt;script cf-hash='f9e31' type=&quot;text/javascript&quot;&gt;\n/* &lt;![CDATA[ */!function(){try{var t=&quot;currentScript&quot;in document?document.currentScript:function(){for(var t=document.getElementsByTagName(&quot;script&quot;),e=t.length;e--;)if(t[e].getAttribute(&quot;cf-hash&quot;))return t[e]}();if(t&amp;&amp;t.previousSibling){var e,r,n,i,c=t.previousSibling,a=c.getAttribute(&quot;data-cfemail&quot;);if(a){for(e=&quot;&quot;,r=parseInt(a.substr(0,2),16),n=2;a.length-n;n+=2)i=parseInt(a.substr(n,2),16)^r,e+=String.fromCharCode(i);e=document.createTextNode(e),c.parentNode.replaceChild(e,c)}}}catch(u){}}();/* ]]&gt; */&lt;/script&gt;[/color][/size]\n\n\nDid the usual stuff, Large size because its over two hours long with nice bit rate and 5.1.  \nCant believe i fell a sleep just as i was finishing this, other wise it would have been upped a few hours ago ;)\n***************REMOVED THE 20 SECONDS THAT REPEATED ON SOURCE, NOW 2 HRS 19 Mins 54Seconds :) ****************************\nenjoy\n\n\nbig shout out to my Homies Mr Hive , Sir Unevano, Super TED , Mr Simmo and Welcome back Pinny\nGreets to SAiNTS,DTRG,SANTi,BDK, THC,SAFC, SiC, AMIABLE and mSD\n\nall the other Ledgends out there Past and Present..","torrent":{"xt":"urn:btih:8727cece87189c48b22568467be4915a042a8d48","amp;dn":"Warrior.2011.BRRip.XViD.AC3-5.1.SeT-CM8","amp;tr":["udp%3A%2F%2Ftracker.openbittorrent.com%3A80","udp%3A%2F%2Fopen.demonii.com%3A1337","udp%3A%2F%2Ftracker.coppersurfer.tk%3A6969","udp%3A%2F%2Fexodus.desync.com%3A6969"],"infoHash":"8727cece87189c48b22568467be4915a042a8d48","infoHashBuffer":{"type":"Buffer","data":[135,39,206,206,135,24,156,72,178,37,104,70,123,228,145,90,4,42,141,72]},"announce":[],"urlList":[]}}